<?xml version="1.0" encoding="UTF-8" standalone="no"?>
<svg
   xmlns:dc="http://purl.org/dc/elements/1.1/"
   xmlns:cc="http://creativecommons.org/ns#"
   xmlns:rdf="http://www.w3.org/1999/02/22-rdf-syntax-ns#"
   xmlns:svg="http://www.w3.org/2000/svg"
   xmlns="http://www.w3.org/2000/svg"
   xmlns:sodipodi="http://sodipodi.sourceforge.net/DTD/sodipodi-0.dtd"
   xmlns:inkscape="http://www.inkscape.org/namespaces/inkscape"
   width="210mm"
   height="297mm"
   viewBox="0 0 210 297"
   version="1.1"
   id="svg8"
   inkscape:version="1.0.2-2 (e86c870879, 2021-01-15)"
   sodipodi:docname="oporto-city-view-svg-cut2.svg">
  <defs
     id="defs2">
    <clipPath
       id="clipPath18"
       clipPathUnits="userSpaceOnUse">
      <path
         id="path16"
         d="M 0,1000 H 1000 V 0 H 0 Z" />
    </clipPath>
    <clipPath
       id="clipPath134"
       clipPathUnits="userSpaceOnUse">
      <path
         id="path132"
         d="M 0,1000 H 1000 V 0 H 0 Z" />
    </clipPath>
  </defs>
  <sodipodi:namedview
     id="base"
     pagecolor="#ffffff"
     bordercolor="#666666"
     borderopacity="1.0"
     inkscape:pageopacity="0.0"
     inkscape:pageshadow="2"
     inkscape:zoom="1.979899"
     inkscape:cx="468.20862"
     inkscape:cy="439.59215"
     inkscape:document-units="mm"
     inkscape:current-layer="g128"
     inkscape:document-rotation="0"
     showgrid="false"
     inkscape:window-width="1517"
     inkscape:window-height="1040"
     inkscape:window-x="2128"
     inkscape:window-y="0"
     inkscape:window-maximized="0" />
  <metadata
     id="metadata5">
    <rdf:RDF>
      <cc:Work
         rdf:about="">
        <dc:format>image/svg+xml</dc:format>
        <dc:type
           rdf:resource="http://purl.org/dc/dcmitype/StillImage" />
        <dc:title></dc:title>
      </cc:Work>
    </rdf:RDF>
  </metadata>
  <g
     inkscape:label="Camada 1"
     inkscape:groupmode="layer"
     id="layer1">
    <g
       transform="matrix(0.11574524,0,0,-0.11574524,45.692857,147.39873)"
       id="g10">
      <text
         id="text126"
         style="font-variant:normal;font-weight:bold;font-stretch:normal;font-size:119.858px;font-family:'Nexa Bold';-inkscape-font-specification:NexaBold;writing-mode:lr-tb;fill:#1a1a1a;fill-opacity:1;fill-rule:nonzero;stroke:none"
         transform="matrix(1,0,0,-1,12.8057,348.1035)"><tspan
           id="tspan124"
           y="0"
           x="0 94.088371 168.9995 237.79788 293.53174 341.35501 410.15338 434.36465 514.78925 542.59625 591.73798 658.97821 683.18945 770.93738 798.74438 866.2243">Oporto City View</tspan></text>
      <g
         id="g128">
        <g
           clip-path="url(#clipPath134)"
           id="g130">
          <path
             id="path136"
             style="fill:#1a1a1a;fill-opacity:1;fill-rule:nonzero;stroke:none;stroke-width:0.437462"
             transform="matrix(2.2859111,0,0,-2.2859111,-394.77094,1273.4755)"
             d="m 606.07422,347.82812 c 0.0796,0.17898 0.1587,0.35813 0.23828,0.53711 0.0763,-0.0211 0.1521,-0.0437 0.22852,-0.0645 -0.0213,-0.0955 -0.0478,-0.18883 -0.0781,-0.28125 -0.0967,-0.0405 -0.23657,-0.11865 -0.37109,-0.19141 z m 0.38867,0.19141 c 0.10299,0.0432 0.16732,0.0581 0.23828,0.0781 -0.0757,-0.0925 -0.15323,-0.18482 -0.23828,-0.26954 h -0.0781 c 0.0279,0.0632 0.0567,0.12607 0.0781,0.19141 z m -249.69141,0.50586 c -0.0498,0.012 -0.091,0.0289 -0.0625,0.0234 0.0468,-0.009 0.0956,-0.007 0.14258,-0.0156 -0.0209,-0.008 -0.0443,-0.0165 -0.0801,-0.008 z m -35.31445,2.86719 c -0.39488,-0.007 -0.78765,-7.1e-4 -1.17969,0.0176 h 1.66407 c -0.16241,-0.005 -0.3218,-0.0148 -0.48438,-0.0176 z" />
          <g
             transform="translate(4.074,459.4029)"
             id="g138" />
          <path
             id="path142"
             style="fill:#1a1a1a;fill-opacity:1;fill-rule:nonzero;stroke:none"
             d="M 140.195,273.305 H 7.798 v 7.834 h 132.397 z" />
          <path
             id="path144"
             style="fill:#1a1a1a;fill-opacity:1;fill-rule:nonzero;stroke:none"
             d="m 995.926,273.305 h -132.4 v 7.834 h 132.4 z" />
          <path
             id="path146"
             style="fill:#1a1a1a;fill-opacity:1;fill-rule:nonzero;stroke:none"
             d="M 140.195,291.502 H 7.798 v 3.135 h 132.397 z" />
          <path
             id="path148"
             style="fill:#1a1a1a;fill-opacity:1;fill-rule:nonzero;stroke:none"
             d="m 995.926,291.502 h -132.4 v 3.135 h 132.4 z" />
          <g
             transform="translate(241.4455,281.4299)"
             id="g150">
            <path
               id="path152"
               style="fill:#1a1a1a;fill-opacity:1;fill-rule:nonzero;stroke:none"
               d="m 0,0 -3.517,10.34 c -0.8,2.345 -1.333,4.477 -1.866,6.555 h -0.106 c -0.533,-2.132 -1.12,-4.317 -1.812,-6.501 L -10.819,0 Z m -11.778,-3.624 -3.731,-11.299 h -4.797 l 12.205,35.922 h 5.596 L 9.753,-14.923 H 4.796 L 0.96,-3.624 Z" />
          </g>
          <g
             transform="translate(290.416,284.6815)"
             id="g154">
            <path
               id="path156"
               style="fill:#1a1a1a;fill-opacity:1;fill-rule:nonzero;stroke:none"
               d="m 0,0 c 1.012,-0.267 2.291,-0.374 3.837,-0.374 5.596,0 9.007,2.719 9.007,7.675 0,4.744 -3.358,7.035 -8.474,7.035 -2.025,0 -3.571,-0.159 -4.37,-0.372 z m -4.637,17.321 c 2.238,0.372 5.17,0.692 8.9,0.692 4.584,0 7.942,-1.066 10.074,-2.985 1.971,-1.704 3.144,-4.316 3.144,-7.514 0,-3.252 -0.959,-5.809 -2.771,-7.675 -2.452,-2.611 -6.449,-3.944 -10.98,-3.944 -1.385,0 -2.664,0.054 -3.73,0.32 v -14.389 h -4.637 z" />
          </g>
          <g
             transform="translate(356.5484,281.4299)"
             id="g158">
            <path
               id="path160"
               style="fill:#1a1a1a;fill-opacity:1;fill-rule:nonzero;stroke:none"
               d="m 0,0 -3.517,10.34 c -0.8,2.345 -1.333,4.477 -1.866,6.555 h -0.106 c -0.533,-2.132 -1.12,-4.317 -1.812,-6.501 L -10.819,0 Z m -11.778,-3.624 -3.731,-11.299 h -4.797 l 12.205,35.922 h 5.596 L 9.753,-14.923 H 4.796 L 0.96,-3.624 Z" />
          </g>
          <g
             transform="translate(405.5181,285.5867)"
             id="g162">
            <path
               id="path164"
               style="fill:#1a1a1a;fill-opacity:1;fill-rule:nonzero;stroke:none"
               d="m 0,0 h 4.743 c 4.957,0 8.101,2.719 8.101,6.822 0,4.638 -3.358,6.662 -8.261,6.716 -2.238,0 -3.837,-0.214 -4.583,-0.427 z m -4.637,16.362 c 2.345,0.48 5.703,0.746 8.9,0.746 4.957,0 8.155,-0.905 10.393,-2.931 1.812,-1.599 2.825,-4.05 2.825,-6.822 0,-4.744 -2.985,-7.888 -6.769,-9.167 v -0.159 c 2.772,-0.961 4.424,-3.518 5.277,-7.249 1.172,-5.009 2.024,-8.473 2.771,-9.859 h -4.797 c -0.586,1.012 -1.385,4.103 -2.398,8.58 -1.066,4.956 -2.985,6.822 -7.195,6.982 H 0 v -15.562 h -4.637 z" />
          </g>
          <g
             transform="translate(466.1595,298.4845)"
             id="g166">
            <path
               id="path168"
               style="fill:#1a1a1a;fill-opacity:1;fill-rule:nonzero;stroke:none"
               d="M 0,0 H -10.926 V 3.944 H 15.669 V 0 H 4.69 V -31.977 H 0 Z" />
          </g>
          <g
             transform="translate(545.4019,282.283)"
             id="g170">
            <path
               id="path172"
               style="fill:#1a1a1a;fill-opacity:1;fill-rule:nonzero;stroke:none"
               d="M 0,0 C -0.267,5.01 -0.587,11.032 -0.533,15.509 H -0.694 C -1.919,11.299 -3.411,6.822 -5.223,1.866 l -6.342,-17.429 h -3.518 l -5.808,17.108 c -1.706,5.064 -3.145,9.7 -4.158,13.964 h -0.106 C -25.262,11.032 -25.528,5.01 -25.849,-0.374 l -0.958,-15.402 h -4.424 l 2.505,35.921 h 5.915 l 6.13,-17.374 c 1.492,-4.424 2.718,-8.368 3.622,-12.099 h 0.161 c 0.905,3.626 2.186,7.57 3.783,12.099 l 6.396,17.374 h 5.915 l 2.24,-35.921 H 0.905 Z" />
          </g>
          <g
             transform="translate(605.8809,283.349)"
             id="g174">
            <path
               id="path176"
               style="fill:#1a1a1a;fill-opacity:1;fill-rule:nonzero;stroke:none"
               d="M 0,0 H -13.964 V -12.951 H 1.599 v -3.891 H -18.6 V 19.079 H 0.8 v -3.89 H -13.964 V 3.837 H 0 Z" />
          </g>
          <g
             transform="translate(642.8067,266.5072)"
             id="g178">
            <path
               id="path180"
               style="fill:#1a1a1a;fill-opacity:1;fill-rule:nonzero;stroke:none"
               d="M 0,0 V 35.921 H 5.062 L 16.574,17.747 c 2.665,-4.21 4.743,-7.994 6.449,-11.671 l 0.106,0.054 c -0.426,4.795 -0.533,9.166 -0.533,14.761 v 15.03 h 4.371 L 26.967,0 H 22.278 L 10.871,18.228 C 8.367,22.224 5.969,26.329 4.157,30.219 L 3.996,30.165 C 4.263,25.635 4.37,21.319 4.37,15.35 V 0 Z" />
          </g>
          <g
             transform="translate(714.0011,298.4845)"
             id="g182">
            <path
               id="path184"
               style="fill:#1a1a1a;fill-opacity:1;fill-rule:nonzero;stroke:none"
               d="M 0,0 H -10.927 V 3.944 H 15.669 V 0 H 4.69 V -31.977 H 0 Z" />
          </g>
          <g
             transform="translate(762.0112,272.1558)"
             id="g186">
            <path
               id="path188"
               style="fill:#1a1a1a;fill-opacity:1;fill-rule:nonzero;stroke:none"
               d="m 0,0 c 2.078,-1.279 5.117,-2.345 8.314,-2.345 4.743,0 7.515,2.506 7.515,6.13 0,3.357 -1.919,5.276 -6.769,7.142 -5.862,2.078 -9.486,5.115 -9.486,10.179 0,5.596 4.636,9.753 11.618,9.753 3.677,0 6.342,-0.853 7.941,-1.758 l -1.279,-3.785 c -1.173,0.641 -3.57,1.705 -6.822,1.705 -4.902,0 -6.768,-2.93 -6.768,-5.382 0,-3.357 2.184,-5.01 7.142,-6.929 6.074,-2.345 9.167,-5.275 9.167,-10.552 0,-5.543 -4.105,-10.34 -12.578,-10.34 -3.464,0 -7.249,1.013 -9.168,2.292 z" />
          </g>
          <g
             transform="translate(173.8793,284.4939)"
             id="g190">
            <path
               id="path192"
               style="fill:#1a1a1a;fill-opacity:1;fill-rule:nonzero;stroke:none"
               d="M 0,0 11.183,-15.355 H 5.258 L -5.758,0 5.258,15.356 h 5.925 z M -13.686,0 -2.503,-15.355 H -8.429 L -19.445,0 -8.429,15.356 h 5.926 z" />
          </g>
          <g
             transform="translate(832.2638,299.8502)"
             id="g194">
            <path
               id="path196"
               style="fill:#1a1a1a;fill-opacity:1;fill-rule:nonzero;stroke:none"
               d="m 0,0 h 5.926 l 11.1,-15.356 -11.1,-15.355 H 0.084 l 11.1,15.355 z m -13.603,0 h 5.926 L 3.422,-15.356 -7.677,-30.711 h -5.842 l 11.1,15.355 z" />
          </g>
        </g>
      </g>
    </g>
  </g>
</svg>
