<?xml version="1.0" encoding="UTF-8" standalone="no"?>
<svg
   xmlns:dc="http://purl.org/dc/elements/1.1/"
   xmlns:cc="http://creativecommons.org/ns#"
   xmlns:rdf="http://www.w3.org/1999/02/22-rdf-syntax-ns#"
   xmlns:svg="http://www.w3.org/2000/svg"
   xmlns="http://www.w3.org/2000/svg"
   viewBox="0 0 1333.3333 1333.3333"
   height="1333.3333"
   width="1333.3333"
   xml:space="preserve"
   id="svg2"
   version="1.1"><metadata
     id="metadata8"><rdf:RDF><cc:Work
         rdf:about=""><dc:format>image/svg+xml</dc:format><dc:type
           rdf:resource="http://purl.org/dc/dcmitype/StillImage" /></cc:Work></rdf:RDF></metadata><defs
     id="defs6"><clipPath
       id="clipPath18"
       clipPathUnits="userSpaceOnUse"><path
         id="path16"
         d="M 0,1000 H 1000 V 0 H 0 Z" /></clipPath><clipPath
       id="clipPath134"
       clipPathUnits="userSpaceOnUse"><path
         id="path132"
         d="M 0,1000 H 1000 V 0 H 0 Z" /></clipPath></defs><g
     transform="matrix(1.3333333,0,0,-1.3333333,0,1333.3333)"
     id="g10"><g
       id="g12"><g
         clip-path="url(#clipPath18)"
         id="g14"><g
           transform="translate(243.178,646.7576)"
           id="g20"><path
             id="path22"
             style="fill:#1a1a1a;fill-opacity:1;fill-rule:nonzero;stroke:none"
             d="M 0,0 C 1.122,-0.818 2.359,-2.275 3.686,-1.206 4.616,-0.457 4.199,1.132 3.557,2.385 2.191,5.051 5.028,7.41 4.279,10.089 4.245,10.214 5.065,10.79 5.191,10.707 5.625,10.421 6.234,9.936 6.234,9.526 6.232,2.186 8.48,-5.181 6.022,-12.493 c -0.839,0.783 -0.458,1.757 -0.45,2.487 0.149,-0.88 -0.713,-2.096 0.498,-3.006 2.176,-1.85 2.23,-3.486 0.245,-5.798 -1.647,-1.919 -2.579,-4.315 -4.484,-6.287 -1.487,-1.54 -2.76,-4.766 0.325,-7.538 2.18,-1.959 -1.467,-2.693 -2.133,-4.172 -1.067,-5.956 -0.938,-11.916 -0.064,-17.879 1.568,-1.21 3.231,-1.378 4.73,-0.039 1.881,1.679 1.917,4.246 1.046,6.034 -1.117,2.295 -2.209,3.825 0.516,5.734 0.919,0.644 0.781,2.454 -0.143,3.571 -1.179,1.424 0.359,2.068 0.814,2.948 0.412,0.797 1.191,0.689 1.658,-0.126 0.507,-0.884 1.772,-1.421 0.662,-2.928 -1.111,-1.51 -0.98,-3.207 0.846,-4.466 1.328,-0.915 1.062,-1.96 0.31,-3.343 -2.266,-4.168 -1.54,-6.337 2.72,-8.298 2.001,-0.921 1.703,-2.265 0.79,-3.453 -2.699,-3.512 -3.81,-6.809 0.12,-10.255 0.962,-0.844 0.754,-2.356 -0.193,-3.11 -2.313,-1.84 -1.986,-4.297 -1.984,-6.735 0.005,-9.829 -0.068,-19.658 0.052,-29.486 0.028,-2.328 -1.261,-5.195 2.215,-6.663 0.884,-0.374 0.415,-2.045 -0.352,-3.085 -2.466,-3.34 -3.747,-6.632 0.255,-9.908 0.983,-0.804 0.766,-2.361 -0.176,-3.106 -2.327,-1.842 -1.967,-4.304 -1.966,-6.735 0.003,-6.649 0.07,-13.299 -0.036,-19.946 -0.035,-2.221 0.471,-3.052 2.91,-2.684 5.13,0.775 10.339,1.046 15.452,1.906 3.542,0.595 5.895,3.53 8.564,5.65 3.944,3.134 7.826,5.715 13.264,4.921 2.788,-0.407 5.33,1.278 7.737,2.479 10.103,5.04 20.394,7.48 31.671,4.263 10.17,-2.902 20.555,-1.86 30.9,-0.782 6.045,0.63 6.394,1.015 6.102,7.037 -0.081,1.659 -1.043,2.942 -1.482,4.455 8.321,1.285 8.322,1.285 8.322,9.891 -10e-4,15.611 -0.019,31.222 0.029,46.832 0.005,1.514 -0.611,3.201 0.731,4.527 0.536,-0.774 0.403,-1.662 0.403,-2.518 0.007,-17.917 0.004,-35.834 0.009,-53.751 0,-0.712 -0.003,-1.425 0.022,-1.348 0,17.122 0.012,35.034 -0.021,52.946 -0.003,1.558 0.406,3.18 -0.407,4.677 4.981,3.888 5.395,9.173 5.138,14.998 -0.355,8.054 0.352,16.167 -0.218,24.196 -0.526,7.403 -0.679,14.785 -0.673,22.184 0.004,4.262 1.948,8.56 -0.449,12.789 -0.349,0.616 0.818,0.995 1.445,1.302 0.978,1.998 -0.148,4.234 0.704,6.247 0.045,0.916 0.09,1.833 0.148,3.022 1.38,-0.976 0.81,-2.085 0.931,-3.022 0.853,-2.013 -0.275,-4.25 0.705,-6.248 1.373,-0.425 1.874,-1.199 1.1,-2.567 -2.487,-4.401 0.641,-8.839 -0.044,-13.264 -0.081,-0.527 0.25,-1.128 0.973,-1.212 0.93,-0.108 1.337,0.459 1.38,1.245 0.151,2.725 0.902,5.641 0.193,8.134 -0.976,3.435 0.272,5.269 2.88,6.741 1.615,0.911 3.347,1.663 5.101,2.269 5.787,2 5.475,2.248 5.304,9.633 -0.037,1.62 0.638,3.288 1.167,4.873 0.205,0.618 0.921,1.257 1.704,1 0.984,-0.322 1.553,-1.058 1.83,-2.17 0.622,-2.5 0.355,-5.087 0.486,-7.575 0.178,-3.39 1.95,-4.506 4.527,-5.382 2.318,-0.788 4.735,-1.393 6.722,-2.886 2.163,-1.626 3.52,-3.262 2.353,-6.557 -0.845,-2.385 -0.02,-5.371 0.114,-8.087 0.039,-0.791 0.477,-1.372 1.388,-1.233 0.933,0.143 1.003,0.916 1.01,1.639 0.044,4.874 1.882,9.769 -0.159,14.62 2.028,0.532 1.239,2.438 1.799,3.686 0.077,1.967 0.115,3.937 0.257,5.9 0.04,0.552 0.588,0.691 0.402,0.162 -0.088,-0.25 0.257,-0.652 0.406,-0.986 0.714,-1.89 0.355,-3.861 0.299,-5.778 -0.048,-1.67 0.558,-2.606 2.076,-3.074 -2.399,-8.665 0.211,-17.414 -0.351,-26.125 -0.107,-1.65 -0.145,-3.044 -1.122,-4.35 -1.223,-5.485 -0.495,-11.046 -0.476,-16.56 0.018,-5.373 -0.814,-10.794 0.478,-16.134 0.982,-0.628 2.138,-1.614 2.438,0.495 0.205,1.438 0.189,2.88 1.406,3.927 2.747,-0.722 -0.117,-5.478 3.71,-5.259 3.367,0.193 0.556,4.452 3.178,5.159 2.592,-0.77 -0.3,-5.151 3.244,-5.119 2.953,0.027 0.643,4.166 3.252,4.746 2.585,-0.547 0.149,-5.223 3.667,-4.737 2.862,0.396 0.402,4.213 2.8,5.12 2.759,-0.614 -0.404,-5.439 3.586,-5.166 3.341,0.228 0.697,4.443 3.221,5.213 2.616,-0.84 -0.194,-5.22 3.274,-5.157 3.185,0.057 0.465,4.425 3.165,5.115 2.599,-0.803 -0.472,-5.297 3.16,-5.11 2.949,0.152 0.726,4.462 3.525,5.166 1.219,-0.986 1.229,-2.43 1.331,-3.851 0.06,-0.82 0.489,-1.366 1.365,-1.308 0.896,0.059 1.149,0.739 1.183,1.506 0.038,0.865 0.009,1.733 0.04,2.598 0.559,15.71 -0.916,31.385 -0.767,47.082 0.039,4.092 0.236,8.127 0.031,12.213 -0.142,2.845 0.994,6.917 1.927,10.353 0.018,0.067 0.212,0.14 0.305,0.12 0.133,-0.028 0.249,-0.139 0.372,-0.214 0.858,-2.001 -0.163,-4.198 0.648,-6.204 -0.17,-0.541 -0.572,-1.509 -0.474,-1.563 3.26,-1.784 1.748,-4.485 1.093,-6.728 -1.002,-3.431 1.546,-6.442 0.722,-9.849 -0.336,-1.391 1.182,-1.731 2.429,-1.717 1.172,0.014 2.756,0.011 2.485,1.576 -0.527,3.049 1.546,5.921 0.266,8.999 -0.954,2.293 0.55,3.828 2.205,5.125 1.848,1.447 4.052,2.152 6.236,2.908 5.095,1.764 6.18,3.968 5.445,9.557 -0.206,1.565 0.586,3.301 1.103,4.899 0.202,0.626 0.948,1.243 1.715,0.994 0.978,-0.318 1.598,-1.037 1.84,-2.164 0.542,-2.52 0.395,-5.169 0.367,-7.61 -0.039,-3.389 1.804,-4.238 4.053,-5.21 1.714,-0.741 3.638,-1.068 5.241,-1.98 2.954,-1.68 5.556,-3.492 4.061,-7.867 -0.667,-1.954 0.264,-4.419 0.284,-6.653 0.016,-1.775 0.548,-2.684 2.492,-2.591 1.944,0.092 1.906,1.368 1.876,2.709 -0.099,4.401 2.119,8.859 -0.428,13.236 -0.35,0.6 0.829,0.985 1.463,1.281 0.793,1.446 -0.057,3.125 0.648,4.584 0.015,1.755 -0.291,3.541 0.45,5.343 1.077,-1.149 0.582,-2.439 0.642,-3.635 0.843,-2.029 -0.258,-4.274 0.695,-6.292 0.633,-0.297 1.802,-0.681 1.453,-1.289 -2.429,-4.231 -0.279,-8.543 -0.462,-12.793 -0.987,-22.951 -0.762,-45.912 -0.789,-68.872 -0.002,-1.302 -0.056,-2.607 0.809,-3.717 0.806,-0.951 1.89,-0.483 2.837,-0.483 38.639,-0.024 77.278,-0.023 115.917,-0.012 1.14,0 2.312,-0.202 3.411,0.308 6.595,-3.263 13.184,-6.539 19.792,-9.778 1.155,-0.566 2.526,-1.587 3.564,-1.355 7.017,1.566 11.867,-3.202 17.461,-5.713 3.398,-1.526 6.646,-3.388 10.037,-5.139 1.311,3.723 0.845,7.586 2.397,11.044 3.179,-3.758 -0.262,-10.11 5.177,-13.354 -2.8,-2.053 -3.027,-5.368 -2.923,-8.918 0.155,-5.342 0.211,-10.698 -0.027,-16.034 -0.126,-2.817 1.021,-3.874 3.563,-4.161 10.601,-1.195 21.198,-2.421 31.795,-3.652 6.728,-0.781 13.475,-1.447 20.171,-2.447 3.57,-0.533 4.494,0.158 3.461,3.88 -5.589,20.151 -10.954,40.363 -16.448,60.541 -0.575,2.111 -0.925,4.196 -0.922,6.389 0.03,22.106 0.083,44.213 -0.048,66.319 -0.02,3.423 0.817,4.686 4.488,4.963 19.553,1.473 39.106,3.044 58.608,5.063 8.868,0.918 16.798,-2.096 24.936,-4.346 37.812,-10.453 75.585,-21.048 113.366,-31.609 0.956,-0.267 1.858,-0.727 2.785,-1.096 1.725,-1.681 1.527,-3.847 1.531,-5.975 0.029,-14.262 -0.075,-28.524 0.051,-42.786 -8.805,-12.683 -17.591,-25.379 -26.424,-38.043 -3.795,-5.441 -7.416,-11.02 -12.424,-15.947 1.722,-1.056 3.305,-0.658 4.764,-0.66 23.556,-0.031 47.114,-0.134 70.668,0.083 4.148,0.038 5.043,-1.269 4.935,-5.112 -0.259,-9.242 -0.172,-18.497 -0.031,-27.744 0.043,-2.808 -0.778,-4.069 -3.679,-3.639 -0.848,0.125 -1.731,0.018 -2.598,0.018 -325.02,0 -650.041,0 -975.061,0.006 -1.876,0 -3.753,0.088 -5.629,0.134 -0.894,3.693 -0.346,7.443 -0.382,11.162 -0.092,9.517 -0.034,19.034 -0.029,28.551 0.002,4.793 0.009,4.798 5.002,4.802 11.389,0.009 22.777,-0.009 34.165,0.024 -11.673,-0.012 -23.35,-0.135 -35.019,0.091 -3.548,0.069 -4.299,-1.103 -4.248,-4.403 0.183,-11.965 0.086,-23.935 0.053,-35.904 -0.003,-1.414 0.363,-2.887 -0.391,-4.242 -1.256,0.805 -0.755,2.082 -0.758,3.155 -0.035,12.853 0.1,25.709 -0.104,38.559 -0.054,3.436 1.198,4.039 4.268,3.996 11.407,-0.162 22.82,0.04 34.226,-0.132 3.163,-0.047 4.301,0.759 4.21,4.087 -0.227,8.226 -0.087,16.462 -0.064,24.694 0.004,1.774 0.179,3.416 -2.339,3.78 -1.087,0.157 -1.965,1.273 -1.511,2.675 0.388,1.198 1.208,1.951 2.528,2.012 0.72,0.034 1.45,0.094 2.164,0.027 3.633,-0.345 5.265,0.194 6.246,4.839 1.519,7.188 7.444,11.76 14.363,14.438 2.655,1.028 5.893,1.332 6.188,4.985 0.302,3.745 0.647,7.663 -3.871,9.573 -2.45,1.036 -2.699,2.637 -0.471,4.089 3.919,2.552 6.965,5.528 6.826,10.646 -0.033,1.178 0.582,1.869 1.876,1.824 1.353,-0.047 1.738,-0.924 1.688,-2.025 -0.22,-4.79 2.5,-7.656 6.26,-9.967 2.672,-1.643 2.445,-3.438 -0.285,-4.705 -4.55,-2.11 -3.692,-6.132 -3.47,-9.761 0.198,-3.232 3.264,-3.528 5.589,-4.554 7.778,-3.433 14.532,-7.851 15.345,-17.411 0.159,-1.879 1.323,-1.84 2.678,-1.981 2.232,-0.232 4.601,0.754 6.695,-0.722 -2.515,-0.747 -5.085,-0.201 -7.624,-0.411 2.553,0.282 5.14,-0.393 7.675,0.364 1.487,-3.469 1.294,-3.736 -3.088,-4.269 -0.117,-0.082 -0.331,-0.159 -0.337,-0.248 -0.68,-10.5 -0.636,-21.002 -0.031,-31.503 0.005,-0.096 0.209,-0.181 0.321,-0.271 2.165,-0.046 4.374,-0.393 6.489,-0.086 10.267,1.492 18.937,-1.415 26.227,-8.809 3.738,-3.792 8.446,-4.967 13.763,-5.2 6.297,-0.277 12.588,-1.024 18.558,-3.638 4.609,-2.018 9.574,-3.21 14.29,-5.008 2.784,-1.062 4.179,-0.731 3.723,2.546 -0.63,4.526 1.799,9.557 -2.337,13.547 -0.619,0.597 -0.62,1.951 0.363,2.722 3.697,2.898 2.466,6.15 0.491,9.248 -1.134,1.779 -2.213,3.174 0.523,4.355 1.437,0.621 0.942,1.976 0.946,3.039 0.036,11.413 0.024,22.826 0.018,34.24 -10e-4,1.29 0.105,2.595 -0.937,3.654 -1.83,1.862 -2.573,2.993 0.246,5.378 1.763,1.492 1.595,5.647 -0.663,8.316 -1.691,1.999 -2.431,3.501 1.155,4.467 2.807,0.756 3.838,4.75 2.037,7.64 -1.004,1.613 -1.429,2.623 0.063,4.074 1.236,1.202 1.544,2.845 0.502,4.307 -1.043,1.462 0.276,2.053 0.789,2.955 0.335,0.589 1.124,0.837 1.431,0.412 0.625,-0.865 1.765,-1.7 1.157,-3.011 -0.958,-2.067 -0.964,-3.775 1.128,-5.251 1.173,-0.827 0.877,-2.022 -0.058,-2.994 -1.523,-1.585 -1.119,-3.527 -0.84,-5.336 0.298,-1.933 1.571,-3.075 3.643,-2.924 2.288,0.167 1.652,2.001 1.673,3.3 0.069,4.333 0.205,8.678 -0.034,12.999 -0.179,3.237 -2.658,6.138 -0.228,9.819 0.956,1.448 -1.188,4.018 -2.501,6.091 -1.685,2.66 -6.202,5.047 -3.788,9.641 0.497,0.945 0.828,2.484 0.4,3.324 -2.291,4.501 1.165,9.149 -0.617,13.793 -0.588,1.533 1.73,3.904 1.164,6.269 -0.065,0.269 0.279,1.295 1.079,0.907 0.468,-0.227 1.167,-1.021 1.072,-1.207 -1.416,-2.769 2.577,-5.509 -0.013,-8.345 -0.445,-0.487 -0.543,-2.303 0.695,-2.531 1.262,-0.232 2.832,0.378 2.689,2.049 -0.655,7.65 1.765,15.46 -1.339,23.002 -0.757,1.84 -0.863,4.172 0.062,5.933 2.113,4.026 2.001,7.902 0.12,11.858 -0.55,1.156 -0.237,1.72 0.787,2.448 3.179,2.26 4.3,7.298 2.161,10.827 -1.033,1.704 -1.278,2.751 0.382,3.977 1.653,1.222 1.379,2.835 0.37,4.186 -1.117,1.497 0.33,2.006 0.783,2.916 0.309,0.621 1.044,0.932 1.364,0.51 0.645,-0.848 1.746,-1.697 1.129,-3.013 -0.976,-2.086 -0.857,-3.78 1.186,-5.259 1.164,-0.843 0.671,-1.954 -0.096,-3.022 -1.969,-2.742 -0.864,-5.834 -0.76,-8.785 0.036,-1.03 0.833,-2.012 1.955,-1.993 1.428,0.026 1.174,1.398 1.331,2.317 0.243,1.415 0.8,2.951 0.482,4.256 -1.208,4.958 1.106,8.387 3.332,12.662 2.444,4.693 5.416,10.533 2.149,16.67 -1.8,3.383 0.304,5.39 3.395,6.582 0.45,0.415 0.889,0.403 1.316,-0.035 4.314,-2.254 4.752,-3.54 2.827,-7.712 -1.187,-2.575 -0.862,-5.466 -0.142,-7.885 1.4,-4.707 2.836,-9.572 6.719,-13.078 2.195,-3.398 0.12,-7.362 1.552,-11.744 1.054,3.108 0.795,5.396 0.15,7.708 -0.372,1.333 -1.322,2.7 0.119,3.985 2.329,0.922 3.225,2.773 1.879,4.755 -1.178,1.736 0.334,2.303 0.736,3.328 0.224,0.571 1.143,0.69 1.367,0.092 0.388,-1.039 2.072,-1.622 0.857,-3.332 -1.065,-1.5 -0.872,-3.228 0.951,-4.455 1.111,-0.747 1.084,-1.745 0.494,-3.011 -2.41,-5.167 -1.898,-7.722 1.992,-11.643 0.345,-0.346 0.713,-1.215 0.541,-1.446 -2.374,-3.18 -0.491,-7.109 -1.904,-10.43 -1.041,2.046 -0.376,4.184 -0.537,6.275 0.472,-2.298 -0.785,-4.715 0.678,-6.944 0.23,-0.236 0.46,-0.472 0.69,-0.708 C 1.809,28.079 0.41,25.497 1.625,23.225 1.082,22.599 0.538,21.973 -0.005,21.347 -0.961,14.231 -0.975,7.116 0,0" /></g><g
           transform="translate(648.9014,565.7899)"
           id="g24"><path
             id="path26"
             style="fill:#1a1a1a;fill-opacity:1;fill-rule:nonzero;stroke:none"
             d="m 0,0 c -1.058,-1.095 -2.429,-0.724 -3.685,-0.724 -38.658,-0.017 -77.316,-0.015 -115.974,-0.006 -0.84,0.001 -1.68,0.112 -2.518,0.197 -0.068,0.007 -0.166,0.216 -0.16,0.327 0.007,0.133 0.11,0.262 0.171,0.393 40.008,0.02 80.015,0.04 120.023,0.048 C -1.429,0.236 -0.714,0.082 0,0" /></g><g
           transform="translate(951.7159,567.6257)"
           id="g28"><path
             id="path30"
             style="fill:#1a1a1a;fill-opacity:1;fill-rule:nonzero;stroke:none"
             d="m 0,0 c -1.469,1.239 -0.888,2.935 -0.894,4.439 -0.045,12.056 -0.021,24.112 -0.028,36.168 -0.001,2.734 0.191,5.486 -0.66,8.152 1.637,0.007 2.233,-0.842 2.228,-2.435 C 0.599,31.259 0.593,16.194 0.544,1.129 0.542,0.752 0.189,0.376 0,0" /></g><g
           transform="translate(5.3884,476.803)"
           id="g32"><path
             id="path34"
             style="fill:#1a1a1a;fill-opacity:1;fill-rule:nonzero;stroke:none"
             d="m 0,0 c -0.001,13.579 0.088,27.159 -0.07,40.737 -0.037,3.194 0.842,4.26 4.132,4.207 11.41,-0.184 22.824,-0.067 34.236,-0.081 0.808,-10e-4 1.615,-0.137 2.398,-0.849 -11.519,0 -23.042,-0.172 -34.555,0.093 C 2.08,44.201 0.662,43.224 0.755,38.92 1.034,25.925 0.851,12.92 0.849,-0.081 0.566,-0.054 0.283,-0.027 0,0" /></g><g
           transform="translate(236.213,704.6489)"
           id="g36"><path
             id="path38"
             style="fill:#1a1a1a;fill-opacity:1;fill-rule:nonzero;stroke:none"
             d="m 0,0 c 0.321,-3.171 2.62,-5.976 1.71,-9.383 -0.255,-0.954 -0.26,-1.988 -0.598,-2.904 -0.286,-0.774 -0.822,-1.606 -1.879,-1.389 -0.903,0.186 -0.758,1.068 -0.94,1.734 -1.089,3.99 0.348,8 -0.114,11.992 C -1.214,0.034 -0.607,0.017 0,0" /></g><g
           transform="translate(428.7555,588.6072)"
           id="g40"><path
             id="path42"
             style="fill:#1a1a1a;fill-opacity:1;fill-rule:nonzero;stroke:none"
             d="m 0,0 c -0.787,-0.467 -0.974,0.023 -0.975,0.658 -0.009,10.456 -0.008,20.912 0.004,31.368 0,0.252 0.083,0.589 0.255,0.726 0.136,0.109 0.468,-0.029 0.713,-0.057 C -0.001,21.796 -0.001,10.898 0,0" /></g><g
           transform="translate(110.5807,522.5854)"
           id="g44"><path
             id="path46"
             style="fill:#1a1a1a;fill-opacity:1;fill-rule:nonzero;stroke:none"
             d="m 0,0 c -1.14,0.53 -1.117,1.567 -1.117,2.587 -0.002,8.96 -0.002,17.921 0,26.882 10e-4,1.023 -0.004,2.056 1.163,2.553 C 0.032,21.348 0.016,10.674 0,0" /></g><g
           transform="translate(243.178,646.7576)"
           id="g48"><path
             id="path50"
             style="fill:#1a1a1a;fill-opacity:1;fill-rule:nonzero;stroke:none"
             d="m 0,0 c -0.387,-0.33 -0.939,-0.269 -0.942,0.157 -0.049,7.005 -0.037,14.012 -0.027,21.018 0,0.101 0.148,0.286 0.228,0.286 0.245,0 0.49,-0.07 0.736,-0.113 C -0.003,14.231 -0.002,7.116 0,0" /></g><g
           transform="translate(243.1367,592.0717)"
           id="g52"><path
             id="path54"
             style="fill:#1a1a1a;fill-opacity:1;fill-rule:nonzero;stroke:none"
             d="m 0,0 c -0.415,-0.327 -0.915,-0.206 -0.918,0.233 -0.037,5.848 -0.016,11.697 0.003,17.546 0.001,0.093 0.168,0.268 0.247,0.263 0.246,-0.017 0.487,-0.103 0.731,-0.162 C 0.043,11.919 0.021,5.96 0,0" /></g><g
           transform="translate(224.9882,733.3747)"
           id="g56"><path
             id="path58"
             style="fill:#1a1a1a;fill-opacity:1;fill-rule:nonzero;stroke:none"
             d="M 0,0 C -0.438,0.012 -0.876,0.023 -1.315,0.035 -1.316,6.189 -1.316,12.343 -1.316,18.496 -0.877,18.495 -0.439,18.494 0,18.493 Z" /></g><g
           transform="translate(430.2264,651.7763)"
           id="g60"><path
             id="path62"
             style="fill:#1a1a1a;fill-opacity:1;fill-rule:nonzero;stroke:none"
             d="m 0,0 c -1.791,-0.096 -2.532,0.758 -2.457,2.536 0.089,2.102 0.059,4.209 0.081,6.315 C -0.593,6.167 -3.087,2.335 0,0" /></g><g
           transform="translate(243.2673,677.8377)"
           id="g64"><path
             id="path66"
             style="fill:#1a1a1a;fill-opacity:1;fill-rule:nonzero;stroke:none"
             d="m 0,0 c -2.126,2.373 -0.698,5.092 -0.143,7.689 0,-2.339 0,-4.679 0.001,-7.02 C -0.051,0.455 -0.004,0.232 0,0" /></g><g
           transform="translate(244.8028,669.983)"
           id="g68"><path
             id="path70"
             style="fill:#1a1a1a;fill-opacity:1;fill-rule:nonzero;stroke:none"
             d="M 0,0 C -1.783,2.204 -0.559,4.764 -0.846,7.146 1.123,4.964 -0.119,2.402 0,0" /></g><g
           transform="translate(249.2478,633.7452)"
           id="g72"><path
             id="path74"
             style="fill:#1a1a1a;fill-opacity:1;fill-rule:nonzero;stroke:none"
             d="M 0,0 C -2.283,1.446 -0.421,3.354 -0.342,5.055 -0.244,3.544 -0.146,2.033 -0.048,0.521 0.032,0.352 0.048,0.179 0,0" /></g><g
           transform="translate(478.8156,655.2959)"
           id="g76"><path
             id="path78"
             style="fill:#1a1a1a;fill-opacity:1;fill-rule:nonzero;stroke:none"
             d="M 0,0 C -1.405,1.943 -0.522,4.125 -0.648,6.202 0.517,4.235 -0.051,2.085 0,0" /></g><g
           transform="translate(385.1743,658.8932)"
           id="g80"><path
             id="path82"
             style="fill:#1a1a1a;fill-opacity:1;fill-rule:nonzero;stroke:none"
             d="M 0,0 C -0.097,-2.098 0.818,-4.31 -0.704,-6.247 -0.665,-4.143 -1.117,-1.983 0,0" /></g><g
           transform="translate(386.9583,652.6453)"
           id="g84"><path
             id="path86"
             style="fill:#1a1a1a;fill-opacity:1;fill-rule:nonzero;stroke:none"
             d="M 0,0 C -1.524,1.936 -0.608,4.148 -0.706,6.247 0.412,4.265 -0.042,2.104 0,0" /></g><g
           transform="translate(525.7249,652.6477)"
           id="g88"><path
             id="path90"
             style="fill:#1a1a1a;fill-opacity:1;fill-rule:nonzero;stroke:none"
             d="M 0,0 C -1.517,1.954 -0.585,4.18 -0.696,6.291 0.394,4.29 -0.02,2.121 0,0" /></g><g
           transform="translate(523.9385,657.2316)"
           id="g92"><path
             id="path94"
             style="fill:#1a1a1a;fill-opacity:1;fill-rule:nonzero;stroke:none"
             d="M 0,0 C -0.008,-1.558 0.653,-3.21 -0.649,-4.584 -0.706,-3.017 -0.975,-1.421 0,0" /></g><g
           transform="translate(426.7859,655.5529)"
           id="g96"><path
             id="path98"
             style="fill:#1a1a1a;fill-opacity:1;fill-rule:nonzero;stroke:none"
             d="M 0,0 C -0.068,-1.487 0.945,-3.502 -1.797,-3.687 -0.452,-2.822 -0.969,-1.049 0,0" /></g><g
           transform="translate(379.2268,577.178)"
           id="g100"><path
             id="path102"
             style="fill:#1a1a1a;fill-opacity:1;fill-rule:nonzero;stroke:none"
             d="m 0,0 c 1.087,-0.855 0.841,-2.075 0.842,-3.203 0.01,-18.213 0.009,-36.426 -0.004,-54.638 0,-0.645 -0.154,-1.29 -0.844,-1.9 0,19.912 0,39.823 0,59.735 z" /></g><g
           transform="translate(254.0691,570.8852)"
           id="g104"><path
             id="path106"
             style="fill:#1a1a1a;fill-opacity:1;fill-rule:nonzero;stroke:none"
             d="m 0,0 v -37.863 c -0.142,0 -0.285,10e-4 -0.427,10e-4 V 0.072 C -0.285,0.048 -0.142,0.024 0,0" /></g><g
           transform="translate(48.5196,553.7333)"
           id="g108"><path
             id="path110"
             style="fill:#1a1a1a;fill-opacity:1;fill-rule:nonzero;stroke:none"
             d="m 0,0 v -30.088 l -0.342,-0.005 v 30.088 z" /></g><g
           transform="translate(254.0621,512.0968)"
           id="g112"><path
             id="path114"
             style="fill:#1a1a1a;fill-opacity:1;fill-rule:nonzero;stroke:none"
             d="m 0,0 v -25.753 c -0.112,-0.002 -0.223,-0.004 -0.335,-0.006 V -0.006 C -0.223,-0.004 -0.112,-0.002 0,0" /></g><g
           transform="translate(206.3685,609.2084)"
           id="g116"><path
             id="path118"
             style="fill:#1a1a1a;fill-opacity:1;fill-rule:nonzero;stroke:none"
             d="m 0,0 v -17.001 c -0.107,-0.004 -0.215,-0.007 -0.322,-0.011 V -0.01 C -0.215,-0.006 -0.107,-0.003 0,0" /></g><g
           transform="translate(113.7162,558.877)"
           id="g120"><path
             id="path122"
             style="fill:#1a1a1a;fill-opacity:1;fill-rule:nonzero;stroke:none"
             d="m 0,0 c -2.794,-1.474 -5.667,-0.637 -8.536,0.047 2.828,0 5.657,0 8.485,0 z" /></g></g></g><text
       id="text126"
       style="font-variant:normal;font-weight:bold;font-stretch:normal;font-size:119.85780334px;font-family:'Nexa Bold';-inkscape-font-specification:NexaBold;writing-mode:lr-tb;fill:#1a1a1a;fill-opacity:1;fill-rule:nonzero;stroke:none"
       transform="matrix(1,0,0,-1,12.8057,348.1035)"><tspan
         id="tspan124"
         y="0"
         x="0 94.088371 168.9995 237.79788 293.53174 341.35501 410.15338 434.36465 514.78925 542.59625 591.73798 658.97821 683.18945 770.93738 798.74438 866.2243">Oporto City View</tspan></text>
<g
       id="g128"><g
         clip-path="url(#clipPath134)"
         id="g130"><path
           id="path136"
           style="fill:#1a1a1a;fill-opacity:1;fill-rule:nonzero;stroke:none"
           d="M 993.255,470.183 H 4.074 v 8.19 h 989.181 z" /><g
           transform="translate(4.074,459.4029)"
           id="g138"><path
             id="path140"
             style="fill:#1a1a1a;fill-opacity:1;fill-rule:nonzero;stroke:#1a1a1a;stroke-width:2;stroke-linecap:butt;stroke-linejoin:miter;stroke-miterlimit:10;stroke-dasharray:none;stroke-opacity:1"
             d="M 0,0 H 989.182" /></g><path
           id="path142"
           style="fill:#1a1a1a;fill-opacity:1;fill-rule:nonzero;stroke:none"
           d="M 140.195,273.305 H 7.798 v 7.834 h 132.397 z" /><path
           id="path144"
           style="fill:#1a1a1a;fill-opacity:1;fill-rule:nonzero;stroke:none"
           d="m 995.926,273.305 h -132.4 v 7.834 h 132.4 z" /><path
           id="path146"
           style="fill:#1a1a1a;fill-opacity:1;fill-rule:nonzero;stroke:none"
           d="M 140.195,291.502 H 7.798 v 3.135 h 132.397 z" /><path
           id="path148"
           style="fill:#1a1a1a;fill-opacity:1;fill-rule:nonzero;stroke:none"
           d="m 995.926,291.502 h -132.4 v 3.135 h 132.4 z" /><g
           transform="translate(241.4455,281.4299)"
           id="g150"><path
             id="path152"
             style="fill:#1a1a1a;fill-opacity:1;fill-rule:nonzero;stroke:none"
             d="m 0,0 -3.517,10.34 c -0.8,2.345 -1.333,4.477 -1.866,6.555 h -0.106 c -0.533,-2.132 -1.12,-4.317 -1.812,-6.501 L -10.819,0 Z m -11.778,-3.624 -3.731,-11.299 h -4.797 l 12.205,35.922 h 5.596 L 9.753,-14.923 H 4.796 L 0.96,-3.624 Z" /></g><g
           transform="translate(290.416,284.6815)"
           id="g154"><path
             id="path156"
             style="fill:#1a1a1a;fill-opacity:1;fill-rule:nonzero;stroke:none"
             d="m 0,0 c 1.012,-0.267 2.291,-0.374 3.837,-0.374 5.596,0 9.007,2.719 9.007,7.675 0,4.744 -3.358,7.035 -8.474,7.035 -2.025,0 -3.571,-0.159 -4.37,-0.372 z m -4.637,17.321 c 2.238,0.372 5.17,0.692 8.9,0.692 4.584,0 7.942,-1.066 10.074,-2.985 1.971,-1.704 3.144,-4.316 3.144,-7.514 0,-3.252 -0.959,-5.809 -2.771,-7.675 -2.452,-2.611 -6.449,-3.944 -10.98,-3.944 -1.385,0 -2.664,0.054 -3.73,0.32 v -14.389 h -4.637 z" /></g><g
           transform="translate(356.5484,281.4299)"
           id="g158"><path
             id="path160"
             style="fill:#1a1a1a;fill-opacity:1;fill-rule:nonzero;stroke:none"
             d="m 0,0 -3.517,10.34 c -0.8,2.345 -1.333,4.477 -1.866,6.555 h -0.106 c -0.533,-2.132 -1.12,-4.317 -1.812,-6.501 L -10.819,0 Z m -11.778,-3.624 -3.731,-11.299 h -4.797 l 12.205,35.922 h 5.596 L 9.753,-14.923 H 4.796 L 0.96,-3.624 Z" /></g><g
           transform="translate(405.5181,285.5867)"
           id="g162"><path
             id="path164"
             style="fill:#1a1a1a;fill-opacity:1;fill-rule:nonzero;stroke:none"
             d="m 0,0 h 4.743 c 4.957,0 8.101,2.719 8.101,6.822 0,4.638 -3.358,6.662 -8.261,6.716 -2.238,0 -3.837,-0.214 -4.583,-0.427 z m -4.637,16.362 c 2.345,0.48 5.703,0.746 8.9,0.746 4.957,0 8.155,-0.905 10.393,-2.931 1.812,-1.599 2.825,-4.05 2.825,-6.822 0,-4.744 -2.985,-7.888 -6.769,-9.167 v -0.159 c 2.772,-0.961 4.424,-3.518 5.277,-7.249 1.172,-5.009 2.024,-8.473 2.771,-9.859 h -4.797 c -0.586,1.012 -1.385,4.103 -2.398,8.58 -1.066,4.956 -2.985,6.822 -7.195,6.982 H 0 v -15.562 h -4.637 z" /></g><g
           transform="translate(466.1595,298.4845)"
           id="g166"><path
             id="path168"
             style="fill:#1a1a1a;fill-opacity:1;fill-rule:nonzero;stroke:none"
             d="M 0,0 H -10.926 V 3.944 H 15.669 V 0 H 4.69 V -31.977 H 0 Z" /></g><g
           transform="translate(545.4019,282.283)"
           id="g170"><path
             id="path172"
             style="fill:#1a1a1a;fill-opacity:1;fill-rule:nonzero;stroke:none"
             d="M 0,0 C -0.267,5.01 -0.587,11.032 -0.533,15.509 H -0.694 C -1.919,11.299 -3.411,6.822 -5.223,1.866 l -6.342,-17.429 h -3.518 l -5.808,17.108 c -1.706,5.064 -3.145,9.7 -4.158,13.964 h -0.106 C -25.262,11.032 -25.528,5.01 -25.849,-0.374 l -0.958,-15.402 h -4.424 l 2.505,35.921 h 5.915 l 6.13,-17.374 c 1.492,-4.424 2.718,-8.368 3.622,-12.099 h 0.161 c 0.905,3.626 2.186,7.57 3.783,12.099 l 6.396,17.374 h 5.915 l 2.24,-35.921 H 0.905 Z" /></g><g
           transform="translate(605.8809,283.349)"
           id="g174"><path
             id="path176"
             style="fill:#1a1a1a;fill-opacity:1;fill-rule:nonzero;stroke:none"
             d="M 0,0 H -13.964 V -12.951 H 1.599 v -3.891 H -18.6 V 19.079 H 0.8 v -3.89 H -13.964 V 3.837 L 0,3.837 Z" /></g><g
           transform="translate(642.8067,266.5072)"
           id="g178"><path
             id="path180"
             style="fill:#1a1a1a;fill-opacity:1;fill-rule:nonzero;stroke:none"
             d="M 0,0 V 35.921 H 5.062 L 16.574,17.747 c 2.665,-4.21 4.743,-7.994 6.449,-11.671 l 0.106,0.054 c -0.426,4.795 -0.533,9.166 -0.533,14.761 v 15.03 h 4.371 L 26.967,0 H 22.278 L 10.871,18.228 C 8.367,22.224 5.969,26.329 4.157,30.219 L 3.996,30.165 C 4.263,25.635 4.37,21.319 4.37,15.35 V 0 Z" /></g><g
           transform="translate(714.0011,298.4845)"
           id="g182"><path
             id="path184"
             style="fill:#1a1a1a;fill-opacity:1;fill-rule:nonzero;stroke:none"
             d="M 0,0 H -10.927 V 3.944 H 15.669 V 0 H 4.69 V -31.977 H 0 Z" /></g><g
           transform="translate(762.0112,272.1558)"
           id="g186"><path
             id="path188"
             style="fill:#1a1a1a;fill-opacity:1;fill-rule:nonzero;stroke:none"
             d="m 0,0 c 2.078,-1.279 5.117,-2.345 8.314,-2.345 4.743,0 7.515,2.506 7.515,6.13 0,3.357 -1.919,5.276 -6.769,7.142 -5.862,2.078 -9.486,5.115 -9.486,10.179 0,5.596 4.636,9.753 11.618,9.753 3.677,0 6.342,-0.853 7.941,-1.758 l -1.279,-3.785 c -1.173,0.641 -3.57,1.705 -6.822,1.705 -4.902,0 -6.768,-2.93 -6.768,-5.382 0,-3.357 2.184,-5.01 7.142,-6.929 6.074,-2.345 9.167,-5.275 9.167,-10.552 0,-5.543 -4.105,-10.34 -12.578,-10.34 -3.464,0 -7.249,1.013 -9.168,2.292 z" /></g><g
           transform="translate(173.8793,284.4939)"
           id="g190"><path
             id="path192"
             style="fill:#1a1a1a;fill-opacity:1;fill-rule:nonzero;stroke:none"
             d="M 0,0 11.183,-15.355 H 5.258 L -5.758,0 5.258,15.356 h 5.925 z M -13.686,0 -2.503,-15.355 H -8.429 L -19.445,0 -8.429,15.356 h 5.926 z" /></g><g
           transform="translate(832.2638,299.8502)"
           id="g194"><path
             id="path196"
             style="fill:#1a1a1a;fill-opacity:1;fill-rule:nonzero;stroke:none"
             d="m 0,0 h 5.926 l 11.1,-15.356 -11.1,-15.355 H 0.084 l 11.1,15.355 z m -13.603,0 h 5.926 L 3.422,-15.356 -7.677,-30.711 h -5.842 l 11.1,15.355 z" /></g></g></g></g></svg>